{"asset":{"version":"2.0","generator":"Unity 6000.1.13f1 glTFast 6.18.0"},"nodes":[{"name":"Ribbon_Grass_tbdpec3r_Raw_tbdpec3r_VarA_LOD0","mesh":0,"translation":[-289.8765,2.21043539,61.33738]}],"buffers":[{"uri":"Ribbon_Grass_tbdpec3r_Raw_tbdpec3r_VarA_LOD0.bin","byteLength":320120}],"bufferViews":[{"buffer":0,"byteLength":37110,"target":34963},{"buffer":0,"byteLength":283008,"byteOffset":37112,"byteStride":48,"target":34962}],"accessors":[{"bufferView":1,"componentType":5126,"count":5896,"type":"VEC3","max":[0.395747483,0.42513293,0.312932223],"min":[-0.3101123,-0.110429332,-0.41100356]},{"bufferView":1,"componentType":5126,"count":5896,"type":"VEC3","byteOffset":12},{"bufferView":1,"componentType":5126,"count":5896,"type":"VEC4","byteOffset":24},{"bufferView":1,"componentType":5126,"count":5896,"type":"VEC2","byteOffset":40},{"bufferView":0,"componentType":5123,"count":18555,"type":"SCALAR"}],"images":[{"name":"Ribbon_Grass_tbdpec3r_Raw_4K_Billboard_BaseColor.jpg","uri":"Ribbon_Grass_tbdpec3r_Raw_4K_Billboard_BaseColor.jpg","mimeType":"image/jpeg"}],"materials":[{"name":"Ribbon_Grass_tbdpec3r_Raw_4K_Billboard_BaseColor","pbrMetallicRoughness":{"metallicFactor":0,"roughnessFactor":0.5,"baseColorTexture":{"index":0}}}],"meshes":[{"name":"_d4a2_VarA_High","primitives":[{"attributes":{"POSITION":0,"NORMAL":1,"TANGENT":2,"TEXCOORD_0":3},"indices":4,"material":0}]}],"scene":0,"scenes":[{"name":"Ribbon_Grass_tbdpec3r_Raw_tbdpec3r_VarA_LOD0","nodes":[0]}],"textures":[{"source":0}]}